<svg xmlns="http://www.w3.org/2000/svg" width="180" height="180" viewBox="0 0 180 180">
  <g fill="#fff" fill-opacity="0.06">
    <circle cx="6" cy="12" r="0.6"/>
    <circle cx="28" cy="4" r="0.5"/>
    <circle cx="42" cy="20" r="0.7"/>
    <circle cx="58" cy="9" r="0.5"/>
    <circle cx="72" cy="30" r="0.6"/>
    <circle cx="88" cy="14" r="0.5"/>
    <circle cx="104" cy="22" r="0.7"/>
    <circle cx="120" cy="6" r="0.5"/>
    <circle cx="138" cy="18" r="0.6"/>
    <circle cx="154" cy="10" r="0.5"/>
    <circle cx="170" cy="24" r="0.6"/>
    <circle cx="10" cy="38" r="0.5"/>
    <circle cx="24" cy="54" r="0.7"/>
    <circle cx="40" cy="44" r="0.5"/>
    <circle cx="56" cy="62" r="0.6"/>
    <circle cx="70" cy="48" r="0.5"/>
    <circle cx="86" cy="58" r="0.7"/>
    <circle cx="100" cy="42" r="0.5"/>
    <circle cx="116" cy="56" r="0.6"/>
    <circle cx="132" cy="46" r="0.5"/>
    <circle cx="148" cy="60" r="0.7"/>
    <circle cx="164" cy="44" r="0.5"/>
    <circle cx="4" cy="74" r="0.6"/>
    <circle cx="20" cy="88" r="0.5"/>
    <circle cx="36" cy="78" r="0.7"/>
    <circle cx="52" cy="94" r="0.5"/>
    <circle cx="68" cy="82" r="0.6"/>
    <circle cx="84" cy="96" r="0.5"/>
    <circle cx="100" cy="80" r="0.7"/>
    <circle cx="116" cy="92" r="0.5"/>
    <circle cx="132" cy="78" r="0.6"/>
    <circle cx="148" cy="94" r="0.5"/>
    <circle cx="164" cy="82" r="0.6"/>
    <circle cx="8" cy="110" r="0.5"/>
    <circle cx="26" cy="122" r="0.7"/>
    <circle cx="44" cy="112" r="0.5"/>
    <circle cx="60" cy="128" r="0.6"/>
    <circle cx="76" cy="116" r="0.5"/>
    <circle cx="92" cy="130" r="0.7"/>
    <circle cx="108" cy="114" r="0.5"/>
    <circle cx="124" cy="126" r="0.6"/>
    <circle cx="140" cy="112" r="0.5"/>
    <circle cx="156" cy="128" r="0.7"/>
    <circle cx="172" cy="116" r="0.5"/>
    <circle cx="12" cy="146" r="0.6"/>
    <circle cx="30" cy="158" r="0.5"/>
    <circle cx="46" cy="148" r="0.7"/>
    <circle cx="62" cy="164" r="0.5"/>
    <circle cx="78" cy="152" r="0.6"/>
    <circle cx="94" cy="166" r="0.5"/>
    <circle cx="110" cy="150" r="0.7"/>
    <circle cx="126" cy="162" r="0.5"/>
    <circle cx="142" cy="148" r="0.6"/>
    <circle cx="158" cy="164" r="0.5"/>
    <circle cx="174" cy="152" r="0.6"/>
  </g>
</svg>
